<svg width="40" height="39" viewBox="0 0 40 39" fill="none" xmlns="http://www.w3.org/2000/svg">
    <path
        d="M16.4574 17.6416C16.2862 17.9071 16.0048 18.0865 15.6891 18.0991C14.8647 18.1319 14.0564 18.0144 13.2643 17.7468C12.3135 17.4255 11.4684 16.9349 10.7291 16.2751C10.0127 15.6067 9.48456 14.8163 9.14477 13.9038C8.60958 12.4666 8.49439 11.1457 8.79917 9.94124C9.12676 8.72825 9.72606 7.68684 10.5971 6.81701C11.4909 5.93868 12.5309 5.27864 13.7172 4.83691C14.2419 4.64152 14.8178 4.47902 15.4449 4.3494C15.6208 4.31304 15.7963 4.28093 15.9714 4.25308C16.7261 4.13301 17.3892 4.69762 17.4953 5.45446C17.6119 6.28701 17.0161 7.04707 16.1956 7.2299C16.1867 7.23187 16.1779 7.23385 16.169 7.23584C15.6417 7.35429 15.1727 7.48997 14.762 7.64288C13.9408 7.9487 13.266 8.36882 12.7377 8.90324C12.2093 9.43767 11.8604 10.0352 11.6907 10.6958C11.5126 11.3336 11.551 11.9947 11.8058 12.6791C12.0352 13.295 12.4144 13.7902 12.9435 14.1647C13.4869 14.5078 14.1003 14.76 14.7837 14.9211C15.4587 15.0594 16.1153 15.1136 16.7536 15.0838C17.2404 15.043 17.7179 15.6865 17.4532 16.0971L16.4574 17.6416Z"
        fill="url(#paint0_linear_439_31643)" />
    <mask id="path-2-inside-1_439_31643" fill="white">
        <path
            d="M32.2742 27.1141C33.2256 27.3869 33.7883 28.3881 33.3681 29.2842C32.5268 31.0781 31.2216 32.6283 29.5738 33.7661C27.4315 35.2454 24.8426 35.936 22.2482 35.7205C19.6537 35.5049 17.2143 34.3964 15.3455 32.5838C13.4768 30.7713 12.2943 28.3669 11.9996 25.7802C11.7049 23.1936 12.3162 20.5848 13.7293 18.3983C15.1424 16.2119 17.27 14.583 19.7494 13.7893C22.2289 12.9957 24.9068 13.0862 27.327 14.0457C29.1885 14.7837 30.8089 16.0006 32.0322 17.5592C32.6432 18.3378 32.3201 19.4399 31.4545 19.9197C30.5889 20.3995 29.5113 20.0674 28.844 19.3364C28.0642 18.4821 27.0958 17.8094 26.0062 17.3774C24.3568 16.7235 22.5318 16.6618 20.8421 17.2027C19.1523 17.7436 17.7024 18.8536 16.7393 20.3437C15.7763 21.8338 15.3597 23.6117 15.5605 25.3745C15.7614 27.1373 16.5672 28.7759 17.8408 30.0112C19.1144 31.2464 20.7768 32.0019 22.545 32.1488C24.3131 32.2957 26.0774 31.825 27.5374 30.8169C28.5019 30.1509 29.2942 29.2775 29.8619 28.2697C30.3475 27.4074 31.3229 26.8413 32.2742 27.1141Z" />
    </mask>
    <path
        d="M32.2742 27.1141C33.2256 27.3869 33.7883 28.3881 33.3681 29.2842C32.5268 31.0781 31.2216 32.6283 29.5738 33.7661C27.4315 35.2454 24.8426 35.936 22.2482 35.7205C19.6537 35.5049 17.2143 34.3964 15.3455 32.5838C13.4768 30.7713 12.2943 28.3669 11.9996 25.7802C11.7049 23.1936 12.3162 20.5848 13.7293 18.3983C15.1424 16.2119 17.27 14.583 19.7494 13.7893C22.2289 12.9957 24.9068 13.0862 27.327 14.0457C29.1885 14.7837 30.8089 16.0006 32.0322 17.5592C32.6432 18.3378 32.3201 19.4399 31.4545 19.9197C30.5889 20.3995 29.5113 20.0674 28.844 19.3364C28.0642 18.4821 27.0958 17.8094 26.0062 17.3774C24.3568 16.7235 22.5318 16.6618 20.8421 17.2027C19.1523 17.7436 17.7024 18.8536 16.7393 20.3437C15.7763 21.8338 15.3597 23.6117 15.5605 25.3745C15.7614 27.1373 16.5672 28.7759 17.8408 30.0112C19.1144 31.2464 20.7768 32.0019 22.545 32.1488C24.3131 32.2957 26.0774 31.825 27.5374 30.8169C28.5019 30.1509 29.2942 29.2775 29.8619 28.2697C30.3475 27.4074 31.3229 26.8413 32.2742 27.1141Z"
        stroke="url(#paint1_linear_439_31643)" stroke-width="3.98327"
        mask="url(#path-2-inside-1_439_31643)" />
    <circle cx="32.4674" cy="23.4673" r="1.19498" transform="rotate(16 32.4674 23.4673)"
        stroke="black" stroke-width="0.796653" />
    <circle cx="32.4674" cy="23.4673" r="1.19498" transform="rotate(16 32.4674 23.4673)"
        stroke="url(#paint2_linear_439_31643)" stroke-width="0.796653" />
    <circle cx="21.733" cy="5.2646" r="1.19498" transform="rotate(16 21.733 5.2646)" stroke="black"
        stroke-width="0.796653" />
    <circle cx="21.733" cy="5.2646" r="1.19498" transform="rotate(16 21.733 5.2646)"
        stroke="url(#paint3_linear_439_31643)" stroke-width="0.796653" />
    <defs>
        <linearGradient id="paint0_linear_439_31643" x1="7.66424" y1="1.03591" x2="51.6899"
            y2="16.9488" gradientUnits="userSpaceOnUse">
            <stop stop-color="#A854E9" />
            <stop offset="1" stop-color="#4F91FC" />
        </linearGradient>
        <linearGradient id="paint1_linear_439_31643" x1="19.9725" y1="4.18241" x2="70.6784"
            y2="81.892" gradientUnits="userSpaceOnUse">
            <stop stop-color="#A854E9" />
            <stop offset="1" stop-color="#4F91FC" />
        </linearGradient>
        <linearGradient id="paint2_linear_439_31643" x1="31.2376" y1="20.8262" x2="41.172"
            y2="29.4242" gradientUnits="userSpaceOnUse">
            <stop stop-color="#A854E9" />
            <stop offset="1" stop-color="#4F91FC" />
        </linearGradient>
        <linearGradient id="paint3_linear_439_31643" x1="20.5033" y1="2.62353" x2="30.4376"
            y2="11.2214" gradientUnits="userSpaceOnUse">
            <stop stop-color="#A854E9" />
            <stop offset="1" stop-color="#4F91FC" />
        </linearGradient>
    </defs>
</svg>
    