<svg width="290" height="42" viewBox="0 0 290 42" fill="none" xmlns="http://www.w3.org/2000/svg">
    <path d="M22.9971 2H30.8313V39.6547H24.7661L7.83419 16.8597V39.6547H0V2H6.01464L22.9971 24.6433V2Z" fill="#FDFCFC"/>
    <path d="M93.4974 11.4516C101.332 11.4516 107.498 17.7695 107.498 25.8564C107.498 33.8927 101.483 40.2612 93.4468 40.2612C90.0604 40.2612 87.0278 39.1492 85.0567 37.0264V39.6547H77.9806V2H85.5621V14.3831C87.4322 12.513 90.2121 11.4516 93.4974 11.4516ZM92.537 33.4378C96.6816 33.4378 99.6636 30.3042 99.6636 25.8564C99.6636 21.4591 96.6816 18.2749 92.537 18.2749C88.443 18.2749 85.5621 21.4086 85.5621 25.8564C85.5621 30.3547 88.443 33.4378 92.537 33.4378Z" fill="#FDFCFC"/>
    <path d="M114.393 39.6547V2H121.974V39.6547H114.393Z" fill="#FDFCFC"/>
    <path d="M156.501 25.0477C156.501 26.1596 156.4 27.221 156.147 27.9792H136.739C137.194 31.4667 139.67 33.6906 143.411 33.6906C146.089 33.6906 148.061 32.5281 149.122 30.658L155.187 33.5389C153.519 37.5824 148.97 40.2612 143.31 40.2612C134.566 40.2612 128.854 33.7917 128.854 25.8058C128.854 17.5673 134.919 11.4516 142.804 11.4516C150.537 11.4516 156.501 17.4157 156.501 25.0477ZM136.891 22.4194H148.465C148.162 19.4879 145.938 17.5168 142.804 17.5168C139.822 17.5168 137.649 19.2352 136.891 22.4194Z" fill="#FDFCFC"/>
    <circle cx="54.0637" cy="2.86201" r="1.56101" transform="rotate(16 54.0637 2.86201)" stroke="black" stroke-width="1.04067"/>
    <circle cx="54.0637" cy="2.86201" r="1.56101" transform="rotate(16 54.0637 2.86201)" stroke="url(#paint0_linear_573_391)" stroke-width="1.04067"/>
    <path d="M45.1307 2.3953C40.3413 3.92694 37.3267 8.2058 38.129 12.3874C38.7124 15.4264 40.4386 17.6874 43.1129 18.8543L44.6202 19.5107L43.7936 21.1153C42.5537 23.5708 42.189 25.4185 42.3106 28.4331C42.5294 33.3198 44.7417 37.2097 48.8018 39.8353C51.0385 41.2697 52.8862 41.8289 55.8765 41.9748C60.3255 42.1936 63.4617 41.0023 66.598 37.9147C69.0778 35.4835 70.1232 33.3927 69.5883 31.9583C69.3695 31.4235 68.2025 30.8643 67.2787 30.8643C66.4764 30.8643 66.0874 31.2047 63.6076 34.0735C60.0581 38.2064 53.7128 38.4009 49.7986 34.5111C46.1275 30.8157 46.0059 25.1267 49.5068 21.3584C53.3238 17.2254 58.8911 17.0309 63.2673 20.8479C64.8961 22.2823 65.8929 22.5983 67.0113 22.0148C67.9351 21.5529 68.2755 20.9451 68.2755 19.8997C68.2755 19.219 68.008 18.83 66.6466 17.4929C62.1732 13.1654 55.7793 12.1443 50.0903 14.8429C48.7289 15.4993 48.3156 15.5966 47.0027 15.4993C44.0124 15.3048 42.0431 13.603 42.0188 11.2204C42.0188 10.0778 42.6509 8.66772 43.5262 7.84112C44.2069 7.20902 46.4679 6.1393 47.5376 5.9205C48.6073 5.726 49.4096 4.77785 49.4096 3.75675C49.4096 1.95769 47.9509 1.49577 45.1307 2.3953Z" fill="url(#paint1_linear_573_391)"/>
    <circle cx="68.0637" cy="26.862" r="1.56101" transform="rotate(16 68.0637 26.862)" stroke="black" stroke-width="1.04067"/>
    <circle cx="68.0637" cy="26.862" r="1.56101" transform="rotate(16 68.0637 26.862)" stroke="url(#paint2_linear_573_391)" stroke-width="1.04067"/>
    <circle cx="216.655" cy="5.43025" r="2.75708" stroke="url(#paint3_linear_573_391)" stroke-width="1.83805"/>
    <path d="M196.364 1.75415H203.945V39.4088H196.111V15.1481L184.739 29.8056H183.728L172.356 14.5921V39.4088H164.521V1.75415H172.103L184.183 17.6752L196.364 1.75415Z" fill="#FDFCFC"/>
    <path d="M212.867 39.4088V11.8122H220.448V39.4088H212.867Z" fill="#FDFCFC"/>
    <path d="M243.653 11.2057C249.87 11.2057 254.116 15.4008 254.116 21.6682V39.4088H246.534V23.2855C246.534 20.1013 244.462 18.0291 241.48 18.0291C238.498 18.0291 236.426 20.1013 236.426 23.2855V39.4088H228.844V11.8122H235.92V15.1481C237.335 12.4693 240.166 11.2057 243.653 11.2057Z" fill="#FDFCFC"/>
    <path d="M282.418 1.75415H290V39.4088H282.924V36.7806C280.952 38.9034 277.92 40.0153 274.533 40.0153C266.497 40.0153 260.482 33.6469 260.482 25.6105C260.482 17.5236 266.649 11.2057 274.483 11.2057C277.768 11.2057 280.548 12.2671 282.418 14.1372V1.75415ZM275.443 33.192C279.537 33.192 282.418 30.1089 282.418 25.6105C282.418 21.1627 279.537 18.0291 275.443 18.0291C271.299 18.0291 268.317 21.2133 268.317 25.6105C268.317 30.0583 271.299 33.192 275.443 33.192Z" fill="#FDFCFC"/>
    <defs>
    <linearGradient id="paint0_linear_573_391" x1="52.4573" y1="-0.588036" x2="65.4346" y2="10.6435" gradientUnits="userSpaceOnUse">
    <stop stop-color="#A854E9"/>
    <stop offset="1" stop-color="#4F91FC"/>
    </linearGradient>
    <linearGradient id="paint1_linear_573_391" x1="41.6192" y1="55.169" x2="159.299" y2="-25.5056" gradientUnits="userSpaceOnUse">
    <stop stop-color="#A854E9"/>
    <stop offset="1" stop-color="#4F91FC"/>
    </linearGradient>
    <linearGradient id="paint2_linear_573_391" x1="66.4573" y1="23.412" x2="79.4346" y2="34.6435" gradientUnits="userSpaceOnUse">
    <stop stop-color="#A854E9"/>
    <stop offset="1" stop-color="#4F91FC"/>
    </linearGradient>
    <linearGradient id="paint3_linear_573_391" x1="213.817" y1="-0.663271" x2="236.738" y2="19.174" gradientUnits="userSpaceOnUse">
    <stop stop-color="#A854E9"/>
    <stop offset="1" stop-color="#4F91FC"/>
    </linearGradient>
    </defs>
    </svg>